<svg xmlns="http://www.w3.org/2000/svg" viewBox="0 0 64.4 48">
  <path d="M39.8.6L37.6 0c-.3 0-.5 0-.8.1s-.4.4-.5.7l-13 45c-.1.3-.1.6.1.8.1.3.4.4.7.5l2.2.6c.3.1.5.1.8-.1.3-.1.4-.4.5-.7L40.6 2c.1-.3.1-.6-.1-.9-.2-.2-.4-.4-.7-.5zM20.3 9.4c0-.3-.1-.6-.4-.8l-1.7-1.7c-.2-.2-.5-.4-.8-.4-.3 0-.6.1-.8.4L.4 23.1c-.3.2-.4.5-.4.8s.1.6.4.8L16.6 41c.2.2.5.4.8.4.3 0 .6-.1.8-.4l1.7-1.7c.2-.2.4-.5.4-.8 0-.3-.1-.6-.4-.8L6.2 23.9l13.7-13.7c.2-.3.4-.5.4-.8zm43.2 13.7L47.2 6.9c-.2-.2-.5-.4-.8-.4s-.6.1-.8.4l-1.7 1.7c-.2.2-.4.5-.4.8s.1.6.4.8l13.7 13.7-13.8 13.7c-.2.2-.4.5-.4.8 0 .3.1.6.4.8l1.7 1.7c.2.2.5.4.8.4s.6-.1.8-.4l16.3-16.3c.2-.2.4-.5.4-.8 0-.2-.1-.5-.3-.7z" fill="#f5333f"/>
</svg>
