<svg width="26" height="56" fill="none" xmlns="http://www.w3.org/2000/svg">
  <path d="M20.036 54.293l.551-8.947 1.522-2.531s-3.464 1.38-9.263 1.38c-5.799 0-9.21-1.354-9.21-1.354L5.34 45.6l.604 8.692c0 .932 3.154 1.687 7.046 1.687 3.89 0 7.045-.755 7.045-1.687zm-1.738-41.782l1.157-4.455L25.86 1.49 24.173.09 17.39 7.083l-1.343 5.322a92.437 92.437 0 0 0-3.034-.049c-7.144 0-12.935.793-12.935 1.771 0 .978 5.791 1.771 12.935 1.771 7.143 0 12.934-.793 12.934-1.77 0-.721-3.14-1.341-7.65-1.618z" fill="#061F2D"/><path d="M17.625 15.006s-.25.055-.988.058c-.737.003-1.26-.005-1.469-.19a.316.316 0 0 1-.086-.215c0-.127.093-.202.21-.249l.112.17c-.048.017-.076.036-.076.057 0 .097.754.163 1.33.155.578-.006 1.275-.053 1.275-.148 0-.029-.052-.056-.144-.077l.111-.17c.15.046.28.133.28.284-.002.257-.337.296-.555.325z" fill="#fff"/><path d="M25.849 1.503c.16-.182-.084-.645-.546-1.036-.463-.39-.969-.56-1.13-.378-.161.18.083.644.546 1.035.462.39.968.56 1.13.379z" fill="#D34A47"/><path d="M19.728 32.439c-.152-1.423 3.195-3.484 2.336-3.55-1.849.103-2.77 2.11-3.7 4.214-.34.771-1.507 4.058-2.272 3.653-.765-.404.991-3.107 1.484-4.712-.568.406-2.652 1.983-3.189.506-.863.714-2.708 1.1-2.5-.775-.459.792-1.49 1.899-2.727 1.439-1.625-.604.941-5.646 1.58-5.391.638.254-.13 1.402-.33 1.848-.442.982-.952 2.216-.611 2.468.584.433 2.173-1.637 2.209-1.682.297-.383 1.144-2.886 1.826-2.598.683.287-1.702 3.592-.81 4.248.18.132.915-.082 1.363-.554.29-.305.19-.981 1.156-3.224.965-2.243 1.826-5.037 2.488-4.824.662.213.116 1.647-.121 2.181-1.115 2.509-3.043 6.653-2.133 6.34.909-.315 1.382-.333 2.272-1.348.89-1.015.85-2.686 1.443-2.65.593.035.493.571.35.98.584-.652 2.768-2.023 3.295-.665.625 1.608-3.125 3.93-2.19 3.811.912-.115 2.388-1.026 3.019-1.855L25.7 15.1s-1.746 1.409-12.856 1.409S.168 15.128.168 15.128l1.478 13.875c.784-2.172 2.647-6.564 5.582-6.416 1.336.067 3.118 2.571 1.591 2.656-.646.036-.712-1.25-1.477-1.439-.552-.136-1.321.301-1.818.775-.991.945-3.123 4.673-2.841 6.532.359 2.37 3.356-.824 3.863-1.772.358-.667.599-2.646 1.38-2.438.781.207-.068 2.249-.634 4.054-.637 2.027-.971 4.165-1.768 3.92-.798-.246.501-2.863.454-3.322-.75.674-2.13 2.38-3.897 1.535L3 41.704s2.439 1.877 9.785 1.877c7.347 0 9.876-1.848 9.876-1.848l1.14-9.979c-.933.885-3.883 2.455-4.072.685z" fill="#061F2D"/>
</svg>
