<svg width="156" height="71" fill="none" xmlns="http://www.w3.org/2000/svg">
  <path d="M23.688 38.303L10.733 44.49V11.92l12.955 6.187v20.196zm0 7.672l-12.955 6.188v-3.317l12.955-6.187v3.316zm3.868.297V19.94l2.997 1.435v17.77c2.127 0 3.867-1.782 3.867-3.96V21.127a3.548 3.548 0 0 0-1.982-3.168L10.733 7.514V4.198l16.823 8.068v-1.88c0-1.535-.87-2.921-2.224-3.565L11.699.337C9.427-.753 6.865.93 6.865 3.505v63.012c0 2.178 1.74 3.96 3.868 3.96v-13.91l14.84-7.078a3.566 3.566 0 0 0 1.983-3.217zM3.867 7.069C1.74 7.069 0 8.85 0 11.029v48.509c0 2.178 1.74 3.96 3.867 3.96V7.068z" fill="#F33540"/><path d="M58.204 34.095c.725-.742 1.064-1.782 1.064-3.02 0-1.286-.339-2.276-1.064-3.019-.725-.742-1.644-1.138-2.755-1.138-1.016 0-1.934.396-2.708 1.188-.773.792-1.16 1.782-1.16 3.02 0 1.237.387 2.227 1.16 3.019.774.792 1.692 1.138 2.708 1.138 1.111-.05 2.03-.445 2.755-1.188zm2.562-8.316c1.354 1.386 1.982 3.168 1.982 5.297 0 2.128-.676 3.86-1.982 5.247-1.305 1.386-2.9 2.079-4.689 2.079-1.837 0-3.336-.545-4.496-1.634v7.87h-3.577V24.097h3.577v1.188c1.16-1.089 2.659-1.633 4.496-1.633 1.789.05 3.336.742 4.69 2.128zM72.61 34.59c.725-.594 1.064-1.336 1.064-2.227v-.149H69.71c-.58 0-1.015.149-1.354.446a1.494 1.494 0 0 0-.532 1.138c0 .545.194.94.629 1.238.435.297.967.445 1.692.445.918 0 1.788-.297 2.465-.89zm2.9-9.553c1.064.94 1.596 2.227 1.596 3.86v9.109h-3.432v-1.139c-1.064 1.04-2.417 1.584-4.158 1.584-1.547 0-2.803-.396-3.77-1.237-.967-.842-1.402-1.93-1.402-3.267s.483-2.426 1.45-3.267c.967-.792 2.272-1.238 3.964-1.238h3.916v-.247c0-.693-.194-1.287-.629-1.683-.435-.446-.966-.644-1.692-.644-1.595 0-2.562.693-2.852 2.03l-3.432-.693c.242-1.337.918-2.426 2.079-3.267 1.112-.842 2.465-1.238 4.012-1.238 1.837 0 3.287.446 4.35 1.337zM89.24 34.046c.773-.792 1.16-1.782 1.16-3.02 0-1.237-.387-2.227-1.16-3.02-.774-.791-1.693-1.187-2.708-1.187-1.112 0-2.03.396-2.755 1.138-.725.743-1.064 1.782-1.064 3.02 0 1.287.339 2.277 1.064 3.02.725.742 1.643 1.138 2.755 1.138 1.015.099 1.934-.297 2.707-1.09zm4.737 4.306c0 2.08-.725 3.713-2.127 4.9-1.402 1.189-3.24 1.733-5.511 1.733-3.142 0-5.366-1.04-6.623-3.069l2.9-2.524c.58.742 1.112 1.237 1.644 1.534.532.297 1.209.446 2.079.446 1.208 0 2.175-.297 2.949-.94.773-.595 1.112-1.486 1.112-2.674v-.99c-1.16 1.09-2.66 1.634-4.496 1.634-1.789 0-3.336-.693-4.69-2.08-1.305-1.385-1.982-3.167-1.982-5.246 0-2.08.677-3.861 1.983-5.297 1.353-1.386 2.9-2.128 4.689-2.128 1.837 0 3.335.544 4.496 1.633v-1.188h3.577v14.256zM101.663 27.561a3.186 3.186 0 0 0-1.257 1.881h6.575c-.242-.841-.628-1.485-1.209-1.93-.58-.446-1.256-.644-2.03-.644-.725 0-1.45.248-2.079.693zm8.992 4.505H100.31c.193.99.58 1.782 1.208 2.376.629.594 1.354.89 2.176.89 1.547 0 2.659-.593 3.384-1.83l3.19.692c-.58 1.436-1.45 2.475-2.61 3.218-1.16.742-2.466 1.089-4.013 1.089-1.982 0-3.625-.693-4.979-2.08-1.353-1.385-2.03-3.118-2.03-5.296 0-2.178.677-3.91 2.03-5.296 1.354-1.386 2.997-2.08 4.979-2.08 1.837 0 3.433.644 4.786 1.98 1.354 1.337 2.031 3.02 2.127 5.1v1.237h.097zM123.562 34.095c.726-.742 1.064-1.782 1.064-3.02 0-1.286-.338-2.276-1.064-3.019-.725-.742-1.643-1.138-2.755-1.138-1.015 0-1.934.396-2.707 1.188-.774.792-1.16 1.782-1.16 3.02 0 1.237.386 2.227 1.16 3.019.773.792 1.692 1.138 2.707 1.138 1.112-.05 2.03-.445 2.755-1.188zm2.563-8.316c1.353 1.386 1.982 3.168 1.982 5.297 0 2.128-.677 3.86-1.982 5.247-1.306 1.386-2.901 2.079-4.69 2.079-1.837 0-3.335-.545-4.495-1.634v7.87h-3.578V24.097h3.578v1.188c1.16-1.089 2.658-1.633 4.495-1.633 1.789.05 3.336.742 4.69 2.128zM140.241 23.997l-.194 3.564h-.773c-3.239 0-4.834 1.98-4.834 5.99v4.504h-3.578V24.096h3.578v2.525c1.257-1.832 2.852-2.723 4.882-2.723.387 0 .725.05.919.1zM151.359 34.046c.773-.792 1.16-1.782 1.16-3.02 0-1.237-.387-2.227-1.16-3.02-.774-.791-1.692-1.138-2.659-1.138-1.015 0-1.934.396-2.755 1.139-.774.742-1.161 1.782-1.161 3.02 0 1.237.387 2.227 1.161 3.019.773.742 1.692 1.138 2.755 1.138 1.015.05 1.885-.346 2.659-1.138zm2.514-8.217c1.402 1.386 2.127 3.118 2.127 5.247 0 2.128-.725 3.91-2.127 5.247-1.402 1.386-3.143 2.03-5.173 2.03-2.079 0-3.819-.694-5.269-2.03-1.45-1.386-2.127-3.119-2.127-5.247 0-2.129.725-3.91 2.127-5.247 1.45-1.386 3.19-2.03 5.269-2.03 2.03-.05 3.771.644 5.173 2.03z" fill="#fff"/>
</svg>
