<svg xmlns="http://www.w3.org/2000/svg" x="0" y="0" viewBox="0 0 108.2 120">
  <path fill="#f5333f" d="M49.2 1.3c3-1.7 6.8-1.7 9.8 0 14.9 8.4 29.7 16.8 44.6 25.2 2.8 1.6 4.7 4.7 4.6 7.9v50.5c0 3.4-2 6.5-5 8.1-14.8 8.3-29.6 16.7-44.4 25.1-3 1.7-6.9 1.6-9.9-.3-4.4-2.6-8.9-5.1-13.3-7.7-.9-.5-1.9-1-2.6-1.9.6-.8 1.6-.9 2.4-1.2 1.9-.6 3.6-1.5 5.3-2.5.4-.3 1-.2 1.4.1l11.4 6.6c.8.5 1.6-.2 2.3-.5 14.5-8.2 29.1-16.4 43.6-24.6.5-.3.8-.8.8-1.4v-50c.1-.7-.3-1.3-.9-1.6-14.8-8.4-29.6-16.7-44.3-25-.5-.4-1.2-.4-1.7 0-14.8 8.3-29.6 16.7-44.3 25-.6.3-1 .9-.9 1.6v50c-.1.5.2 1.1.7 1.3 3.9 2.2 7.9 4.5 11.8 6.7 2.2 1.2 4.9 1.9 7.4 1 2.2-.8 3.7-3 3.6-5.3V38.7c-.1-.7.6-1.3 1.4-1.3h5.7c.8 0 1.3.8 1.2 1.5v50c0 4.4-1.8 9.3-5.9 11.5-5.1 2.6-11.3 2.1-16.3-.4-4.3-2.2-8.5-4.7-12.7-7-3-1.5-5-4.7-5-8.1V34.4c0-3.3 1.9-6.5 4.8-8C19.6 18 34.4 9.6 49.2 1.3z"/><path fill="#f5333f" d="M62.1 36.3c6.5-.4 13.4-.2 19.2 2.9 4.5 2.4 7 7.6 7.1 12.6-.1.7-.8 1-1.5 1h-5.6c-.8 0-1.3-.7-1.4-1.4-.5-2.4-1.8-4.8-4.1-5.9-3.5-1.7-7.5-1.6-11.2-1.6-2.8.1-5.7.4-8 2-1.8 1.2-2.3 3.7-1.7 5.7.6 1.4 2.3 1.9 3.6 2.3 7.8 2 16 1.8 23.7 4.5 3.2 1.1 6.3 3.2 7.3 6.5 1.4 4.4.8 9.7-2.4 13.3-2.6 2.9-6.3 4.5-10 5.4-4.9 1.1-10.1 1.1-15.1.6-4.7-.5-9.6-1.8-13.3-5-3.1-2.7-4.6-6.9-4.5-11 0-.7.7-1.2 1.4-1.1h5.7c.8-.1 1.3.6 1.4 1.3.3 2.3 1.2 4.7 3.2 6 3.8 2.5 8.6 2.3 13 2.4 3.6-.2 7.7-.2 10.7-2.6 1.6-1.4 2-3.7 1.6-5.6-.5-1.7-2.2-2.4-3.7-3-7.7-2.4-16-1.5-23.6-4.3-3.1-1.1-6.1-3.2-7.3-6.3-1.7-4.5-.9-10 2.6-13.5 3.4-3.4 8.3-4.8 12.9-5.2z"/>
</svg>
