<svg xmlns="http://www.w3.org/2000/svg" viewBox="0 0 256 228"><style>.st0{fill:#f5333f}</style><path class="st0" d="M162.8 214.8v-3c-6.3-3.2-13.2-7.8-20.3-13.9-2.2-1.9-4.3-3.9-6.4-5.9 7.2-7.9 14.4-17.1 21.5-27.2 1.8-.2 3.5-.3 5.3-.5V136c-3.6 6.2-7.4 12.3-11.4 18.3-7.8.6-15.6.8-23.4.8-8 0-15.7-.2-23.2-.7-4.4-6.5-8.6-13.1-12.5-19.8-3.9-6.7-7.5-13.6-10.9-20.6 3.4-7 7-13.9 10.9-20.6 3.9-6.7 8-13.3 12.4-19.8 7.6-.6 15.4-.9 23.3-.9s15.7.3 23.4.9c4.3 6.4 8.5 13 12.3 19.7 1 1.7 1.9 3.3 2.9 5 2.2-3 5.3-5.3 8.8-6.6-.7-1.3-1.5-2.6-2.2-3.9-2.5-4.3-5.1-8.6-7.8-12.8 8.2 1 16 2.4 23.3 4.1-1.2 3.8-2.5 7.6-4 11.5h11.6c1.1-3 2-5.9 2.9-8.8 2.6.8 5.2 1.6 7.6 2.4 5.7 1.9 10.8 4.1 15.3 6.4h20.2c-7.9-6.5-18.8-12.2-32-16.8-2.7-.9-5.5-1.8-8.2-2.6.5-1.9.9-3.8 1.3-5.6 6.2-30.3 2.2-54.7-11.8-62.7-13.4-7.7-35.2.3-57.3 19.5-2.2 1.9-4.3 3.8-6.4 5.8l-4.2-3.9C100.8 3.8 77.6-4.8 63.7 3.2 50.3 11 46.4 33.9 52 62.6c.6 2.8 1.2 5.7 1.9 8.5-3.3.9-6.4 1.9-9.5 3C17.3 83.5 0 98.3 0 113.7c0 15.9 18.6 31.8 46.8 41.4 2.3.8 4.6 1.5 6.9 2.2-.8 3-1.4 6.1-2 9.1-5.4 28.2-1.2 50.6 12.1 58.3 13.7 7.9 36.8-.2 59.3-19.9 1.8-1.6 3.6-3.2 5.3-4.9 2.2 2.2 4.6 4.3 6.9 6.3 10.5 9 21 15.5 30.5 18.8-1.9-2.9-3-6.4-3-10.2zm-80-74.8c2.6 4.5 5.3 8.9 8 13.1-8.4-.9-16.3-2.2-23.6-3.8 2.3-7.3 5-14.9 8.3-22.6 2.4 4.6 4.8 9 7.3 13.3zm0-52.2c-2.5 4.4-4.9 8.8-7.2 13.2-3.2-7.6-5.9-15-8.1-22.2 7.3-1.6 15.1-3 23.2-4-2.8 4.4-5.4 8.7-7.9 13zm58.9-57.1c18.9-16.4 36.6-22.9 44.6-18.3 8.6 4.9 11.9 24.9 6.5 51-.3 1.7-.7 3.4-1.1 5.1-10.6-2.5-22.2-4.3-34.2-5.4-7-10-14.3-19.1-21.6-27 1.8-1.9 3.8-3.7 5.8-5.4zm-13.6 13.2c5 5.5 10.1 11.6 15.1 18.2-10.1-.5-20.2-.5-30.3 0 5-6.6 10.1-12.7 15.2-18.2zM69.2 12.7c8.6-5 27.5 2.1 47.5 19.8 1.3 1.2 2.6 2.3 3.8 3.5-7.4 8-14.8 17.1-21.8 27-12 1.1-23.6 2.9-34.2 5.3-.7-2.6-1.2-5.2-1.8-7.9-4.8-24.5-1.6-43 6.5-47.7zm-12.5 134c-2.1-.6-4.2-1.3-6.3-2-12.5-4.3-22.8-9.8-29.9-15.9-6.3-5.4-9.6-10.8-9.6-15.2 0-9.3 13.9-21.2 37.1-29.3 2.8-1 5.8-1.9 8.8-2.8 3.2 10.4 7.4 21.3 12.5 32.3-5.1 11.3-9.4 22.4-12.6 32.9zm59.2 49.9c-9.9 8.7-19.9 14.8-28.7 17.9-7.9 2.8-14.2 2.9-18 .7-8.1-4.7-11.4-22.6-6.9-46.8.5-2.8 1.2-5.7 1.9-8.5 10.5 2.3 22.1 4 34.5 5 7.1 10 14.5 19.1 22 27.2-1.5 1.5-3.1 3-4.8 4.5zm12.5-12.4c-5.2-5.6-10.4-11.8-15.4-18.4 4.9.2 9.9.3 15 .3 5.2 0 10.4-.1 15.5-.3-5 6.7-10.1 12.9-15.1 18.4z"/><ellipse transform="rotate(-9.213 127.997 113.645)" class="st0" cx="128" cy="113.7" rx="22.9" ry="22.9"/><path class="st0" d="M239 227.7h-51.6c-8 0-14.5-6.4-14.5-14.3v-99.8c0-7.9 6.5-14.3 14.5-14.3H239c8 0 14.5 6.4 14.5 14.3v99.8c0 7.8-6.5 14.3-14.5 14.3zm-51.6-118.2c-2.3 0-4.1 1.8-4.1 4.1v99.8c0 2.2 1.8 4.1 4.1 4.1H239c2.3 0 4.1-1.8 4.1-4.1v-99.8c0-2.2-1.8-4.1-4.1-4.1h-51.6z"/><path class="st0" d="M219.9 122.1h-12.7c-2 0-3.5-1.6-3.5-3.5v-.2c0-2 1.6-3.5 3.5-3.5h12.7c2 0 3.5 1.6 3.5 3.5v.2c.1 1.9-1.5 3.5-3.5 3.5z"/><ellipse class="st0" cx="213.4" cy="208.1" rx="4.9" ry="4.8"/></svg>