<svg width="66" height="58" fill="none" xmlns="http://www.w3.org/2000/svg"><path d="M54.265 18.799a44.41 44.41 0 0 0-2.124-.661c.12-.484.23-.962.328-1.432 1.608-7.71.557-13.923-3.034-15.968-3.443-1.96-9.074.084-14.761 4.972-.56.483-1.108.98-1.644 1.49-.358-.34-.722-.672-1.093-.998C25.977.975 20.003-1.228 16.416.823c-3.44 1.967-4.459 7.807-3.011 15.115.144.723.307 1.444.488 2.16-.846.236-1.662.49-2.443.758C4.462 21.262 0 25.033 0 28.946c0 4.04 4.79 8.091 12.069 10.548.59.199 1.185.383 1.784.552a42.28 42.28 0 0 0-.518 2.327c-1.38 7.18-.303 12.882 3.128 14.837 3.543 2.018 9.49-.056 15.281-5.056.47-.407.93-.825 1.378-1.254a43.07 43.07 0 0 0 1.784 1.608c5.61 4.767 11.15 6.693 14.577 4.733 3.54-2.024 4.69-8.15 3.196-15.602a36.49 36.49 0 0 0-.395-1.742c.417-.122.827-.248 1.227-.379C61.077 37.042 66 33.039 66 28.945c0-3.926-4.607-7.722-11.735-10.146zm-1.64 18.076c-.362.118-.732.231-1.11.342-.835-2.612-1.962-5.389-3.341-8.258 1.316-2.802 2.4-5.543 3.212-8.138.675.193 1.33.396 1.962.611 6.107 2.077 9.833 5.147 9.833 7.513 0 2.52-4.024 5.791-10.557 7.93zm-2.712 5.305c.661 3.295.755 6.275.318 8.604-.393 2.093-1.184 3.488-2.161 4.047-2.08 1.19-6.528-.357-11.325-4.434a40.105 40.105 0 0 1-1.66-1.495c1.86-2.009 3.719-4.344 5.533-6.938 3.19-.28 6.205-.737 8.938-1.36.132.522.251 1.048.358 1.576zM22.502 54.625c-2.032.71-3.65.73-4.63.172-2.081-1.186-2.946-5.764-1.766-11.905.14-.726.301-1.447.482-2.164 2.703.59 5.696 1.015 8.894 1.271 1.826 2.539 3.738 4.871 5.666 6.914-.41.392-.83.773-1.258 1.144-2.56 2.21-5.127 3.78-7.388 4.568zM12.98 36.86c-3.218-1.086-5.876-2.498-7.698-4.04-1.637-1.384-2.463-2.759-2.463-3.874 0-2.374 3.583-5.401 9.558-7.46.726-.249 1.485-.484 2.272-.705.826 2.653 1.91 5.427 3.217 8.233-1.325 2.847-2.423 5.665-3.257 8.35a35.14 35.14 0 0 1-1.63-.504zm3.191-21.456c-1.24-6.261-.417-10.984 1.656-12.17 2.208-1.262 7.09.538 12.237 5.051.336.295.666.596.99.903-1.917 2.034-3.812 4.35-5.622 6.873-3.104.284-6.075.74-8.807 1.351a40.369 40.369 0 0 1-.454-2.008zm28.47 6.943a88.434 88.434 0 0 0-2.008-3.26c2.106.263 4.124.612 6.019 1.04a59.009 59.009 0 0 1-2.113 5.613 96.748 96.748 0 0 0-1.898-3.393zm-11.61-11.169a59.735 59.735 0 0 1 3.884 4.631 84.07 84.07 0 0 0-7.801-.001 61.647 61.647 0 0 1 3.917-4.63zM21.347 22.366a81.945 81.945 0 0 0-1.863 3.37 61.01 61.01 0 0 1-2.097-5.64 64.397 64.397 0 0 1 5.984-1.015 81.692 81.692 0 0 0-2.024 3.284zm2.084 16.641a60.675 60.675 0 0 1-6.083-.966c.583-1.859 1.3-3.79 2.14-5.755a81.396 81.396 0 0 0 3.943 6.721zm9.679 7.902a62.63 62.63 0 0 1-3.971-4.694 99.92 99.92 0 0 0 3.861.074c1.345 0 2.675-.03 3.984-.087a59.415 59.415 0 0 1-3.874 4.707zm13.457-14.723a58.63 58.63 0 0 1 2.216 5.735 60.5 60.5 0 0 1-6.157 1.036 97.247 97.247 0 0 0 2.027-3.317 88.177 88.177 0 0 0 1.914-3.454zm-4.357 2.063a91.207 91.207 0 0 1-3.166 5.046c-2.011.14-4.027.21-6.044.21-2.054 0-4.052-.064-5.976-.187a78.89 78.89 0 0 1-3.226-5.054 77.959 77.959 0 0 1-2.815-5.252 78.63 78.63 0 0 1 2.807-5.256 78.146 78.146 0 0 1 3.2-5.031A80.796 80.796 0 0 1 33 18.5c2.043 0 4.059.078 6.021.225a83.748 83.748 0 0 1 3.18 5.016 90.932 90.932 0 0 1 2.845 5.23 83.579 83.579 0 0 1-2.836 5.277zM48.027 3.15c2.21 1.26 3.07 6.336 1.68 12.994-.088.425-.188.857-.296 1.296-2.738-.624-5.712-1.088-8.825-1.377-1.813-2.55-3.692-4.87-5.579-6.877.495-.471 1-.93 1.518-1.376 4.873-4.188 9.427-5.841 11.502-4.66zM33 23.124c3.255 0 5.894 2.606 5.894 5.821s-2.64 5.821-5.894 5.821c-3.255 0-5.894-2.606-5.894-5.82 0-3.216 2.64-5.822 5.894-5.822z" fill="#F5333F"/></svg>