<svg width="48" height="43" fill="none" xmlns="http://www.w3.org/2000/svg">
  <path d="M39.466 13.937c-.511-.176-1.026-.34-1.545-.49.087-.359.167-.713.238-1.061 1.17-5.717.405-10.323-2.206-11.839-2.505-1.454-6.6.062-10.736 3.686-.407.358-.806.726-1.195 1.104a29.25 29.25 0 0 0-.795-.74C18.892.724 14.547-.91 11.939.61 9.437 2.07 8.696 6.398 9.749 11.816c.105.536.223 1.07.355 1.6a31.61 31.61 0 0 0-1.777.563C3.245 15.764 0 18.56 0 21.46c0 2.995 3.484 6 8.777 7.821.43.147.862.284 1.298.409a31.831 31.831 0 0 0-.377 1.725c-1.004 5.324-.22 9.551 2.275 11 2.577 1.496 6.902-.041 11.114-3.748a27.4 27.4 0 0 0 1.002-.93c.42.41.854.807 1.297 1.192 4.08 3.535 8.109 4.962 10.601 3.51 2.575-1.502 3.412-6.043 2.325-11.568a27.352 27.352 0 0 0-.288-1.291c.304-.09.602-.184.893-.281C44.42 27.462 48 24.495 48 21.459c0-2.91-3.35-5.725-8.534-7.522zm-1.194 13.401c-.262.088-.532.172-.806.254-.608-1.936-1.427-3.995-2.43-6.123.957-2.076 1.745-4.11 2.335-6.033.491.143.968.294 1.427.453 4.442 1.54 7.151 3.816 7.151 5.57 0 1.869-2.926 4.294-7.677 5.88zm-1.971 3.933c.48 2.443.549 4.652.23 6.38-.285 1.55-.86 2.585-1.571 3-1.513.881-4.748-.265-8.237-3.288a29.472 29.472 0 0 1-1.206-1.108c1.352-1.49 2.704-3.22 4.023-5.144 2.32-.207 4.513-.546 6.5-1.009.097.388.183.778.26 1.17zm-19.937 9.227c-1.478.526-2.655.54-3.366.128-1.514-.88-2.144-4.274-1.285-8.827.102-.538.219-1.073.35-1.604 1.966.438 4.143.753 6.469.943a50.19 50.19 0 0 0 4.12 5.125c-.298.29-.603.573-.914.848-1.863 1.64-3.729 2.802-5.374 3.387zM9.441 27.327c-2.34-.806-4.274-1.853-5.599-2.995-1.19-1.027-1.791-2.046-1.791-2.873 0-1.76 2.605-4.004 6.951-5.53.528-.185 1.08-.36 1.653-.523a49.72 49.72 0 0 0 2.34 6.103 50.51 50.51 0 0 0-2.37 6.191c-.398-.114-.793-.239-1.184-.373zm2.32-15.908c-.902-4.641-.302-8.143 1.205-9.022 1.606-.936 5.157.399 8.9 3.745.244.219.484.442.72.67a49.412 49.412 0 0 0-4.09 5.094 49.78 49.78 0 0 0-6.404 1.002c-.123-.493-.233-.99-.33-1.489zm20.706 5.148a65.866 65.866 0 0 0-1.46-2.417c1.531.195 2.999.454 4.377.77a44.294 44.294 0 0 1-1.537 4.162 71.955 71.955 0 0 0-1.38-2.515zm-8.444-8.28a44.11 44.11 0 0 1 2.825 3.433c-1.89-.09-3.783-.09-5.673-.001a45.465 45.465 0 0 1 2.848-3.432zm-8.498 8.294a60.997 60.997 0 0 0-1.355 2.5 45.796 45.796 0 0 1-1.525-4.182c1.37-.309 2.83-.561 4.352-.753-.51.8-1 1.612-1.472 2.435zm1.516 12.338a43.382 43.382 0 0 1-4.424-.716c.424-1.378.946-2.81 1.556-4.267a60.915 60.915 0 0 0 2.868 4.983zm7.039 5.858a46.217 46.217 0 0 1-2.888-3.48c.919.037 1.856.055 2.808.055.978 0 1.945-.022 2.897-.065a43.842 43.842 0 0 1-2.817 3.49zm9.787-10.915a43.997 43.997 0 0 1 1.612 4.252c-1.392.32-2.895.577-4.478.768.507-.81.999-1.63 1.474-2.459.483-.843.947-1.697 1.392-2.561zm-3.169 1.53a67.78 67.78 0 0 1-2.302 3.74c-1.463.105-2.93.156-4.396.156-1.494 0-2.947-.047-4.346-.139a58.64 58.64 0 0 1-2.346-3.746 58.112 58.112 0 0 1-2.048-3.894 58.7 58.7 0 0 1 2.042-3.896 58.055 58.055 0 0 1 2.327-3.731 57.677 57.677 0 0 1 4.37-.165H24c1.486 0 2.952.057 4.379.166a62.283 62.283 0 0 1 2.313 3.719 67.838 67.838 0 0 1 2.069 3.877 62.324 62.324 0 0 1-2.063 3.912zm4.23-23.056c1.608.933 2.233 4.697 1.223 9.633a27.69 27.69 0 0 1-.216.96 48.783 48.783 0 0 0-6.418-1.02c-1.319-1.891-2.685-3.61-4.057-5.099.36-.349.727-.689 1.104-1.02 3.543-3.104 6.855-4.33 8.364-3.454zM24 17.144c2.367 0 4.286 1.932 4.286 4.315 0 2.384-1.919 4.316-4.286 4.316-2.367 0-4.286-1.932-4.286-4.316 0-2.383 1.919-4.315 4.286-4.315z" fill="#061F2D"/>
</svg>
