<svg width="48" height="42" viewBox="0 0 48 42" fill="none" xmlns="http://www.w3.org/2000/svg">
  <path d="M31.0495 38.877V38.3348C29.8734 37.7565 28.5853 36.9252 27.2599 35.8228C26.8492 35.4794 26.4572 35.118 26.0651 34.7565C27.4092 33.3288 28.7533 31.6662 30.0787 29.8409C30.4147 29.8048 30.7321 29.7867 31.0681 29.7506V24.6362C30.3961 25.7566 29.6867 26.859 28.94 27.9434C27.4839 28.0518 26.0278 28.0879 24.5717 28.0879C23.0783 28.0879 21.6409 28.0518 20.2408 27.9614C19.4194 26.7867 18.6353 25.594 17.9073 24.3831C17.1792 23.1723 16.5072 21.9253 15.8725 20.6603C16.5072 19.3952 17.1792 18.1483 17.9073 16.9374C18.6353 15.7266 19.4007 14.5338 20.2221 13.3591C21.6409 13.2507 23.097 13.1965 24.5717 13.1965C26.0465 13.1965 27.5026 13.2507 28.94 13.3591C29.7427 14.5158 30.5268 15.7085 31.2361 16.9194C31.4228 17.2266 31.5908 17.5157 31.7775 17.823C32.1882 17.2808 32.7669 16.8651 33.4203 16.6302C33.2896 16.3953 33.1403 16.1603 33.0096 15.9254C32.5429 15.1483 32.0575 14.3712 31.5535 13.6122C33.0843 13.7929 34.5403 14.0459 35.9031 14.3531C35.6791 15.0399 35.4364 15.7266 35.1564 16.4314H37.3218C37.5272 15.8892 37.6952 15.3652 37.8632 14.8411C38.3486 14.9856 38.8339 15.1302 39.282 15.2748C40.346 15.6182 41.2981 16.0157 42.1382 16.4314H45.9091C44.4343 15.2567 42.3995 14.2266 39.9353 13.3953C39.4313 13.2326 38.9086 13.07 38.4046 12.9254C38.4979 12.582 38.5726 12.2387 38.6473 11.9134C39.8047 6.43752 39.058 2.02792 36.4445 0.582151C33.943 -0.809402 29.8734 0.636368 25.7478 4.10622C25.3371 4.44959 24.9451 4.79296 24.553 5.1544C24.2917 4.91946 24.0303 4.68452 23.769 4.44959C19.4754 0.7448 15.1445 -0.809402 12.5496 0.636368C10.0481 2.04599 9.32008 6.18451 10.3655 11.3712C10.4775 11.8772 10.5895 12.4013 10.7202 12.9073C10.1041 13.07 9.52543 13.2507 8.94673 13.4495C3.88774 15.1483 0.658203 17.823 0.658203 20.6061C0.658203 23.4795 4.13042 26.353 9.39475 28.0879C9.82411 28.2325 10.2535 28.359 10.6828 28.4855C10.5335 29.0277 10.4215 29.5879 10.3095 30.1301C9.30142 35.2264 10.0855 39.2746 12.5683 40.6661C15.1258 42.0938 19.4381 40.63 23.6383 37.0698C23.9743 36.7806 24.3104 36.4915 24.6277 36.1842C25.0384 36.5818 25.4864 36.9613 25.9158 37.3228C27.8759 38.9493 29.836 40.124 31.6095 40.7203C31.2548 40.1963 31.0495 39.5637 31.0495 38.877ZM16.1152 25.359C16.6005 26.1723 17.1046 26.9675 17.6086 27.7265C16.0405 27.5638 14.5657 27.3289 13.203 27.0397C13.6324 25.7205 14.1364 24.347 14.7524 22.9554C15.2005 23.7868 15.6485 24.5819 16.1152 25.359ZM16.1152 15.9254C15.6485 16.7206 15.2005 17.5157 14.7711 18.3109C14.1737 16.9374 13.6697 15.6001 13.259 14.2989C14.6218 14.0097 16.0778 13.7567 17.5899 13.576C17.0672 14.3712 16.5819 15.1483 16.1152 15.9254ZM27.1105 5.6062C30.6388 2.64237 33.943 1.46769 35.4364 2.299C37.0418 3.18454 37.6579 6.79896 36.6498 11.5158C36.5938 11.823 36.5191 12.1302 36.4445 12.4375C34.4657 11.9857 32.3002 11.6604 30.0601 11.4616C28.7533 9.65436 27.3906 8.00979 26.0278 6.5821C26.3638 6.23873 26.7372 5.91343 27.1105 5.6062ZM24.5717 7.99172C25.5051 8.98569 26.4572 10.0881 27.3906 11.2808C25.5051 11.1905 23.6197 11.1905 21.7342 11.2808C22.6676 10.0881 23.6197 8.98569 24.5717 7.99172ZM13.5764 2.35322C15.1818 1.44961 18.71 2.73273 22.4436 5.9315C22.6863 6.14837 22.9289 6.34716 23.153 6.56402C21.7715 8.00979 20.3901 9.65436 19.0834 11.4435C16.8432 11.6423 14.6778 11.9676 12.699 12.4013C12.5683 11.9314 12.4749 11.4616 12.3629 10.9736C11.4669 6.54595 12.0643 3.20261 13.5764 2.35322ZM11.2429 26.5699C10.8508 26.4614 10.4588 26.3349 10.0668 26.2084C7.73332 25.4313 5.81053 24.4374 4.48511 23.335C3.30904 22.3591 2.693 21.3832 2.693 20.588C2.693 18.9073 5.28783 16.7567 9.61877 15.2929C10.1415 15.1121 10.7015 14.9495 11.2615 14.7868C11.8589 16.6663 12.643 18.6362 13.595 20.6241C12.643 22.6663 11.8402 24.6723 11.2429 26.5699ZM22.2942 35.5879C20.4461 37.1601 18.5793 38.2625 16.9366 38.8228C15.4618 39.3288 14.2857 39.3469 13.5764 38.9493C12.0643 38.0999 11.4482 34.865 12.2883 30.4915C12.3816 29.9855 12.5123 29.4614 12.643 28.9554C14.6031 29.371 16.7686 29.6783 19.0834 29.859C20.4088 31.6662 21.7902 33.3108 23.1903 34.7746C22.9103 35.0457 22.6116 35.3168 22.2942 35.5879ZM24.6277 33.3469C23.657 32.3349 22.6863 31.2144 21.7529 30.0216C22.6676 30.0578 23.601 30.0759 24.553 30.0759C25.5238 30.0759 26.4945 30.0578 27.4466 30.0216C26.5132 31.2325 25.5611 32.3529 24.6277 33.3469Z" fill="#061F2D"/>
  <path d="M25.2399 24.6909C27.5704 24.3247 29.153 22.1989 28.7748 19.9427C28.3966 17.6866 26.2007 16.1544 23.8702 16.5206C21.5397 16.8868 19.957 19.0126 20.3352 21.2687C20.7135 23.5249 22.9093 25.057 25.2399 24.6909Z" fill="#061F2D"/>
  <path d="M45.275 41.2081H35.6424C34.149 41.2081 32.9355 40.0515 32.9355 38.6238V20.588C32.9355 19.1603 34.149 18.0037 35.6424 18.0037H45.275C46.7685 18.0037 47.9819 19.1603 47.9819 20.588V38.6238C47.9819 40.0334 46.7685 41.2081 45.275 41.2081ZM35.6424 19.847C35.213 19.847 34.877 20.1723 34.877 20.588V38.6238C34.877 39.0214 35.213 39.3647 35.6424 39.3647H45.275C45.7044 39.3647 46.0404 39.0394 46.0404 38.6238V20.588C46.0404 20.1904 45.7044 19.847 45.275 19.847H35.6424Z" fill="#061F2D"/>
  <path d="M41.7088 22.1239H39.3379C38.9646 22.1239 38.6846 21.8348 38.6846 21.4914V21.4553C38.6846 21.0938 38.9833 20.8228 39.3379 20.8228H41.7088C42.0821 20.8228 42.3621 21.1119 42.3621 21.4553V21.4914C42.3808 21.8348 42.0821 22.1239 41.7088 22.1239Z" fill="#061F2D"/>
  <path d="M40.4958 38.5335C41.0009 38.5335 41.4105 38.1451 41.4105 37.666C41.4105 37.1869 41.0009 36.7986 40.4958 36.7986C39.9906 36.7986 39.5811 37.1869 39.5811 37.666C39.5811 38.1451 39.9906 38.5335 40.4958 38.5335Z" fill="#061F2D"/>
</svg>
