<svg width="44" height="42" fill="none" xmlns="http://www.w3.org/2000/svg"><path d="M30.487 29.216c1.624-.168 2.856-1.57 2.8-3.252a3.147 3.147 0 0 0-3.136-3.028h-.112c-1.736.056-3.08 1.514-3.023 3.252.056.841.392 1.57.896 2.075-1.904 3.757-4.816 6.505-9.183 8.804-2.967 1.57-6.047 2.131-9.127 1.739-2.52-.337-4.479-1.458-5.71-3.31-1.793-2.747-1.96-5.719-.449-8.691 1.064-2.131 2.744-3.701 3.808-4.486-.224-.73-.56-1.963-.728-2.86-8.119 5.888-7.28 13.851-4.815 17.608 1.847 2.804 5.599 4.542 9.742 4.542 1.12 0 2.24-.112 3.36-.392 7.167-1.402 12.598-5.664 15.677-12zm9.855-6.953c-4.255-4.991-10.526-7.739-17.694-7.739h-.895a3.077 3.077 0 0 0-2.744-1.682h-.112c-1.736.056-3.08 1.514-3.023 3.252a3.147 3.147 0 0 0 3.135 3.028h.112a3.154 3.154 0 0 0 2.744-1.906h1.007c4.256 0 8.287 1.233 11.927 3.645 2.8 1.85 4.815 4.262 5.935 7.178.952 2.355.896 4.654-.112 6.617-1.568 2.972-4.2 4.598-7.671 4.598-2.24 0-4.367-.673-5.487-1.178a33.078 33.078 0 0 1-2.52 2.02c2.408 1.12 4.872 1.738 7.223 1.738 5.375 0 9.35-2.973 10.863-5.945 1.623-3.252 1.511-8.86-2.688-13.626zm-28.444 7.906a3.147 3.147 0 0 0 3.136 3.029h.112c1.735-.056 3.08-1.515 3.023-3.253a3.147 3.147 0 0 0-3.135-3.028h-.112c-.112 0-.28 0-.392.056-2.296-3.813-3.248-7.963-2.912-12.45.224-3.364 1.344-6.28 3.304-8.691 1.623-2.075 4.759-3.084 6.887-3.14 5.935-.113 8.454 7.29 8.622 10.262.728.168 1.96.56 2.8.84C32.559 4.712 26.96 0 21.585 0c-5.04 0-9.687 3.645-11.535 9.028-2.575 7.178-.896 14.076 2.24 19.515-.28.393-.448 1.01-.392 1.627z" fill="#061F2D"/></svg>