<svg xmlns="http://www.w3.org/2000/svg" viewBox="0 0 96.6 120">
  <path d="M3.6 110.4L0 11.4c0-3 2.4-6 5.4-6L90 0c3.6 0 6 2.4 6.6 5.4V114c0 3.6-3 6-6 6l-81-3.6c-3 0-6-2.4-6-6z" fill="#f5333f"/>
  <mask x="71.4" y="0" width="12.6" height="15.6">
    <path fill="#fff" d="M3.6 110.4L0 11.4c0-3 2.4-6 5.4-6L90 0c3.6 0 6 2.4 6.6 5.4V114c0 3.6-3 6-6 6l-81-3.6c-3 0-6-2.4-6-6z"/>
  </mask>
  <path d="M71.4 15L72 1.2 83.4 0l.6 14.4c0 .6-.6 1.2-.6 1.2h-.6L78 11.4l-5.4 4.2c-.6 0-1.2 0-1.2-.6z" fill="#fff"/>
  <path d="M56.4 45c0 2.4 15.6 1.2 18-.6 0-16.2-8.4-24.6-24-24.6s-25.2 9-25.2 22.2c0 22.2 30 22.8 30 34.8 0 3.6-1.8 5.4-5.4 5.4-4.8 0-6.6-2.4-6.6-10.8 0-1.8-18-2.4-18.6 0C23.4 91.8 36 97.2 50.4 97.2c13.8 0 24.6-7.2 24.6-21 0-24-30.6-23.4-30.6-34.8.6-4.8 4.2-5.4 6-5.4 2.4 0 6 0 6 9z" fill="#fff"/>
</svg>
