<svg width="42" height="42" fill="none" xmlns="http://www.w3.org/2000/svg"><path d="M0 21c0 8.299 4.807 15.484 11.841 18.925L1.821 12.448A21.069 21.069 0 0 0 0 21zm21.354 1.822L15.08 41.14A20.94 20.94 0 0 0 21 42c2.429 0 4.807-.405 6.983-1.215l-.152-.303-6.477-17.66zm13.815-2.885c0-2.58-.911-4.402-1.72-5.768-1.063-1.771-2.075-3.239-2.075-4.96 0-1.922 1.467-3.744 3.542-3.744h.253A21.026 21.026 0 0 0 21 0 20.94 20.94 0 0 0 3.441 9.463c.506 0 4.25-.152 4.25-.152l8.097 24.542 4.605-13.764-3.745-10.88h6.933l7.894 24.492 2.074-6.983c1.114-2.733 1.62-4.959 1.62-6.78zm4.25-9.007c.102.658.152 1.366.152 2.176 0 2.125-.405 4.504-1.62 7.54l-6.375 18.52C37.8 35.523 42 28.742 42 21c0-3.643-.91-7.084-2.58-10.07z" fill="#061F2D"/></svg>