<svg xmlns="http://www.w3.org/2000/svg" viewBox="-8 9 83 83"><path d="M-8 50.5c0 16.4 9.5 30.6 23.4 37.4L-4.4 33.6C-6.7 38.8-8 44.5-8 50.5zm42.2 3.6L21.8 90.3c3.7 1.1 7.7 1.7 11.7 1.7 4.8 0 9.5-.8 13.8-2.4L47 89 34.2 54.1zm27.3-5.7c0-5.1-1.8-8.7-3.4-11.4-2.1-3.5-4.1-6.4-4.1-9.8 0-3.8 2.9-7.4 7-7.4h.5C54.1 13.1 44.3 9 33.5 9 19 9 6.2 16.4-1.2 27.7c1 0 8.4-.3 8.4-.3l16 48.5 9.1-27.2-7.4-21.5h13.7l15.6 48.4 4.1-13.8c2.2-5.4 3.2-9.8 3.2-13.4zm8.4-17.8c.2 1.3.3 2.7.3 4.3 0 4.2-.8 8.9-3.2 14.9L54.4 86.4C66.7 79.2 75 65.8 75 50.5c0-7.2-1.8-14-5.1-19.9z" fill="#f5333f"/></svg>